<svg width="700" height="700" xmlns="http://www.w3.org/2000/svg">

 <g>
  <title>background</title>
  <rect fill="none" id="canvas_background" height="402" width="582" y="-1" x="-1"/>
 </g>
 <g>
  <title>Layer 1</title>
  <path id="svg_24" d="m235.2,208.27l47.602,75.094c1.5352,2.4141 4.1953,3.8711 7.0547,3.8633c2.8711,-0.00391 5.5469,-1.457 7.1133,-3.8633l47.77,-75.098l-0.00391,0.00391c9.9141,-13.613 14.43,-30.41 12.684,-47.156c-1.75,-16.746 -9.6406,-32.25 -22.148,-43.52c-12.508,-11.27 -28.746,-17.508 -45.582,-17.508s-33.074,6.2383 -45.582,17.508c-12.508,11.27 -20.398,26.773 -22.145,43.52c-1.75,16.746 2.7695,33.543 12.68,47.156l0.55691,0.00009zm54.824,-91.672c13.629,0 26.699,5.418 36.332,15.059c9.6328,9.6445 15.035,22.719 15.02,36.348c0.01172,11.125 -3.625,21.945 -10.359,30.801c0,0.44922 -0.55859,0.89453 -0.78516,1.3438l-40.207,63.055l-40.152,-63.109c-0.22656,-0.5 -0.50781,-0.96875 -0.83984,-1.4023c-6.6914,-8.8281 -10.312,-19.609 -10.305,-30.688c-0.01172,-13.621 5.3828,-26.688 15.004,-36.328c9.6172,-9.6406 22.676,-15.066 36.293,-15.078l-0.001,-0.0015z"/>
  <path id="svg_25" d="m290.02,201.88c9.0234,0 17.676,-3.5859 24.051,-9.9688c6.375,-6.3828 9.9531,-15.039 9.9414,-24.059c-0.01172,-9.0234 -3.6055,-17.672 -9.9961,-24.039s-15.047,-9.9375 -24.07,-9.918c-9.0234,0.01953 -17.664,3.625 -24.027,10.023c-6.3633,6.3984 -9.918,15.059 -9.8906,24.082c0.03125,8.9961 3.625,17.613 9.9961,23.965c6.3711,6.3477 15,9.9141 23.996,9.9141l-0.0008,0.0007zm0,-51.184c4.5547,0 8.9219,1.8086 12.145,5.0234c3.2227,3.2148 5.0391,7.5781 5.0469,12.133c0.01172,4.5508 -1.7852,8.9219 -4.9961,12.152c-3.207,3.2305 -7.5664,5.0547 -12.121,5.0742c-4.5508,0.01953 -8.9258,-1.7656 -12.164,-4.9688c-3.2383,-3.1992 -5.0703,-7.5547 -5.1016,-12.109c-0.03125,-4.5781 1.7695,-8.9805 4.9961,-12.23c3.2266,-3.2461 7.6172,-5.0742 12.195,-5.0742l-0.0003,-0.0006z"/>
  <path id="svg_26" d="m320.71,269.75c-4.4062,-0.01562 -8.0898,3.3594 -8.4531,7.75c-0.36719,4.3945 2.7031,8.332 7.0547,9.0469c18.09,1.457 24.641,4.7031 26.879,6.2148c-5.9922,3.5273 -25.535,8.6797 -56,8.6797s-50.062,-5.1523 -56,-8.6797c2.2969,-1.5664 8.793,-4.7031 26.32,-6.2148c2.2227,-0.18359 4.2773,-1.2422 5.7148,-2.9453c1.4414,-1.7031 2.1445,-3.9062 1.957,-6.125c-0.44531,-4.5938 -4.4688,-7.9961 -9.0703,-7.6719c-10.586,0.89453 -42.785,3.6406 -42.785,23.801c0,23.465 61.602,24.641 73.977,24.641s73.977,-1.1758 73.977,-24.641c-0.28125,-20.273 -32.875,-22.961 -43.57,-23.855l-0.0011,-0.0007z"/>
  <path id="svg_27" d="m579.6,471.63l-95.199,-100.8l-0.00391,0c-4.1211,-4.3516 -9.8516,-6.8203 -15.848,-6.832c-7.4336,0.13672 -14.5,3.2656 -19.598,8.6797l-1.2891,1.3438l-21.895,-23.016c34.82,-35.445 54.133,-83.27 53.691,-132.95c-0.44141,-49.688 -20.602,-97.16 -56.047,-131.98c-35.441,-34.82 -83.27,-54.133 -132.95,-53.691c-49.684,0.44141 -97.16,20.602 -131.98,56.047c-33.84,33.988 -53.355,79.66 -54.531,127.61c-1.1758,47.949 16.078,94.523 48.211,130.13c32.133,35.605 76.699,57.535 124.52,61.273c47.816,3.7344 95.242,-11.008 132.52,-41.195l23.07,24.246l0.00391,0.00391c-3.7891,4.6562 -5.8125,10.5 -5.7188,16.5c0.08984,6 2.293,11.777 6.2227,16.316l95.199,100.8c4.1758,4.4453 10.023,6.9453 16.129,6.8867c7.4258,-0.17969 14.477,-3.3008 19.598,-8.6797l14,-14.617c4.8828,-4.6211 7.8008,-10.938 8.1562,-17.652c0.35547,-6.7109 -1.8828,-13.301 -6.25,-18.41l-0.011,-0.01341zm-172.04,-134.12c-26.977,26.957 -62.465,43.73 -100.42,47.457c-37.953,3.7305 -76.027,-5.8203 -107.73,-27.016c-31.707,-21.195 -55.086,-52.727 -66.148,-89.223c-11.066,-36.5 -9.1367,-75.703 5.4609,-110.94s40.961,-64.316 74.594,-82.297c33.637,-17.977 72.465,-23.738 109.87,-16.301c37.406,7.4414 71.074,27.617 95.273,57.094c24.199,29.48 37.43,66.438 37.434,104.57c-0.00781,43.754 -17.391,85.711 -48.328,116.65l-0.0059,0.006zm154.06,154.62l-14.055,14.617l-0.00391,-0.00391c-0.89844,1.0156 -2.0938,1.7227 -3.4141,2.0195l-95.199,-100.8c-0.33203,-1.9531 0.39453,-3.9297 1.9023,-5.207l14.055,-14.559l0,-0.0039c0.89062,-1 2.0625,-1.7031 3.3633,-2.0156l95.199,100.8c0.32031,1.9219 -0.37891,3.8711 -1.8477,5.1523l0.00011,0.00061z"/>
 </g>
</svg>